# xmcd
#
# Track frame offsets:
#	151
#	30503
#	57042
#	98194
#	150208
#	175610
#	193780
#	211921
#	227068
#	242776
#
# Disc length: 3611 seconds
#
# Revision: 1
# Processed by: cddbd v1.5.2PL0 Copyright (c) Steve Scherf et al.
# Submitted via: CDmax 2.0
#
DISCID=720e190a
DTITLE=Eric Clapton - Have You Ever (disc1)
DYEAR=2006
DGENRE=Blues
TTITLE0=Tell the Truth
TTITLE1=Five Long Years
TTITLE2=Got to Get Better in a Littlw While
TTITLE3=Old Love
TTITLE4=Motherless Children
TTITLE5=Driftin' Blues
TTITLE6=Key to the Highway
TTITLE7=Outside Woman Blues
TTITLE8=Nobody Knows You When You're Down and out
TTITLE9=Running on Faith
EXTD=Eric Clapton\tguitar, vocals\nDoyle Bramhall II\tguitar\nDerek Trucks\tg
EXTD=uitar\nChris Stainton\tkeyboards\nTim Carmon\tkeyboards\nWillie Weeks\tb
EXTD=ass\nSteve Jordan\tdrums\nMichelle John\tbacking vocals\nSharon White\tb
EXTD=acking vocals\n\nRecorded live at Budokan, Tokyo, Japan on November 20th
EXTD=, 2006
EXTT0=
EXTT1=
EXTT2=
EXTT3=
EXTT4=
EXTT5=Sit Down Set~Eric Solo
EXTT6=Sit Down Set
EXTT7=Sit Down Set~With Rhythm Section
EXTT8=Sit Down Set
EXTT9=Sit Down Set
PLAYORDER=
